# Utah Teapot Model
# Version: 1975 - Martin Newell
# Triangle Mesh Resolution: 4 (880 faces)
o Utah Teapot

v -1.5 0 2.8
v -1.515625 -0.16875 2.753125
v -1.55 -0.225 2.65
v -1.584375 -0.16875 2.546875
v -1.6 0 2.5
v -2.15625 0 2.790625
v -2.142334 -0.16875 2.744482
v -2.111719 -0.225 2.642969
v -2.081104 -0.16875 2.541455
v -2.067188 0 2.495312
v -2.625 0 2.725
v -2.591797 -0.16875 2.683984
v -2.51875 -0.225 2.59375
v -2.445703 -0.16875 2.503516
v -2.4125 0 2.4625
v -2.90625 0 2.546875
v -2.862549 -0.16875 2.519775
v -2.766407 -0.225 2.460156
v -2.670264 -0.16875 2.400537
v -2.626563 0 2.373438
v -3 0 2.2
v -2.953125 -0.16875 2.2
v -2.85 -0.225 2.2
v -2.746875 -0.16875 2.2
v -2.7 0 2.2
v -1.515625 0.16875 2.753125
v -1.55 0.225 2.65
v -1.584375 0.16875 2.546875
v -2.142334 0.16875 2.744482
v -2.111719 0.225 2.642969
v -2.081104 0.16875 2.541455
v -2.591797 0.16875 2.683984
v -2.51875 0.225 2.59375
v -2.445703 0.16875 2.503516
v -2.862549 0.16875 2.519775
v -2.766407 0.225 2.460156
v -2.670264 0.16875 2.400537
v -2.953125 0.16875 2.2
v -2.85 0.225 2.2
v -2.746875 0.16875 2.2
v -2.933594 0 1.760156
v -2.890991 -0.16875 1.786401
v -2.797266 -0.225 1.844141
v -2.70354 -0.16875 1.90188
v -2.660938 0 1.928125
v -2.73125 0 1.34375
v -2.700977 -0.16875 1.383789
v -2.634375 -0.225 1.471875
v -2.567773 -0.16875 1.559961
v -2.5375 0 1.6
v -2.388281 0 0.9554687
v -2.377661 -0.16875 1.004907
v -2.354297 -0.225 1.113672
v -2.330933 -0.16875 1.222436
v -2.320313 0 1.271875
v -1.9 0 0.6
v -1.915625 -0.16875 0.6625
v -1.95 -0.225 0.8
v -1.984375 -0.16875 0.9375001
v -2 0 1
v -2.890991 0.16875 1.786401
v -2.797266 0.225 1.844141
v -2.70354 0.16875 1.90188
v -2.700977 0.16875 1.383789
v -2.634375 0.225 1.471875
v -2.567773 0.16875 1.559961
v -2.377661 0.16875 1.004907
v -2.354297 0.225 1.113672
v -2.330933 0.16875 1.222436
v -1.915625 0.16875 0.6625
v -1.95 0.225 0.8
v -1.984375 0.16875 0.9375001
v 2.8 0 3
v 2.8625 -0.084375 3
v 3 -0.1125 3
v 3.1375 -0.084375 3
v 3.2 0 3
v 2.840625 0 3.05625
v 2.920642 -0.09316406 3.060095
v 3.09668 -0.1242188 3.068555
v 3.272717 -0.09316406 3.077014
v 3.352735 0 3.080859
v 2.825 0 3.075
v 2.919239 -0.1125 3.079395
v 3.126563 -0.15 3.089063
v 3.333887 -0.1125 3.09873
v 3.428125 0 3.103125
v 2.771875 0 3.05625
v 2.872278 -0.1318359 3.058996
v 3.093164 -0.1757813 3.065039
v 3.31405 -0.1318359 3.071081
v 3.414453 0 3.073828
v 2.7 0 3
v 2.79375 -0.140625 3
v 3 -0.1875 3
v 3.20625 -0.140625 3
v 3.3 0 3
v 2.8625 0.084375 3
v 3 0.1125 3
v 3.1375 0.084375 3
v 2.920642 0.09316406 3.060095
v 3.09668 0.1242188 3.068555
v 3.272717 0.09316406 3.077014
v 2.919239 0.1125 3.079395
v 3.126563 0.15 3.089063
v 3.333887 0.1125 3.09873
v 2.872278 0.1318359 3.058996
v 3.093164 0.1757813 3.065039
v 3.31405 0.1318359 3.071081
v 2.79375 0.140625 3
v 3 0.1875 3
v 3.20625 0.140625 3
v 2.501562 0 2.628125
v 2.558691 -0.1766602 2.601269
v 2.684375 -0.2355469 2.542187
v 2.810058 -0.1766602 2.483105
v 2.867187 0 2.45625
v 2.3875 0 2.2
v 2.434375 -0.2559375 2.125781
v 2.5375 -0.34125 1.9625
v 2.640625 -0.2559375 1.799219
v 2.6875 0 1.725
v 2.179688 0 1.846875
v 2.216309 -0.3352149 1.719434
v 2.296875 -0.4469531 1.439062
v 2.377441 -0.3352149 1.158691
v 2.414063 0 1.03125
v 1.7 0 1.7
v 1.7 -0.37125 1.528125
v 1.7 -0.495 1.15
v 1.7 -0.37125 0.771875
v 1.7 0 0.6
v 2.558691 0.1766602 2.601269
v 2.684375 0.2355469 2.542187
v 2.810058 0.1766602 2.483105
v 2.434375 0.2559375 2.125781
v 2.5375 0.34125 1.9625
v 2.640625 0.2559375 1.799219
v 2.216309 0.3352149 1.719434
v 2.296875 0.4469531 1.439062
v 2.377441 0.3352149 1.158691
v 1.7 0.37125 1.528125
v 1.7 0.495 1.15
v 1.7 0.37125 0.771875
v 0 0 4
v -0.340625 0 3.934375
v -0.3143452 -0.1340513 3.934375
v -0.2421602 -0.2421602 3.934375
v -0.1340513 -0.3143452 3.934375
v 0 -0.340625 3.934375
v -0.325 0 3.775
v -0.299918 -0.1278789 3.775
v -0.2310313 -0.2310313 3.775
v -0.1278789 -0.299918 3.775
v 0 -0.325 3.775
v -0.196875 0 3.578125
v -0.1816567 -0.07739209 3.578125
v -0.1398867 -0.1398867 3.578125
v -0.07739209 -0.1816567 3.578125
v 0 -0.196875 3.578125
v -0.2 0 3.4
v -0.1845 -0.0785 3.4
v -0.142 -0.142 3.4
v -0.0785 -0.1845 3.4
v 0 -0.2 3.4
v 0.1340513 -0.3143452 3.934375
v 0.2421602 -0.2421602 3.934375
v 0.3143452 -0.1340513 3.934375
v 0.340625 0 3.934375
v 0.1278789 -0.299918 3.775
v 0.2310313 -0.2310313 3.775
v 0.299918 -0.1278789 3.775
v 0.325 0 3.775
v 0.07739209 -0.1816567 3.578125
v 0.1398867 -0.1398867 3.578125
v 0.1816567 -0.07739209 3.578125
v 0.196875 0 3.578125
v 0.0785 -0.1845 3.4
v 0.142 -0.142 3.4
v 0.1845 -0.0785 3.4
v 0.2 0 3.4
v 0 0.340625 3.934375
v 0.1340513 0.3143452 3.934375
v 0.2421602 0.2421602 3.934375
v 0.3143452 0.1340513 3.934375
v 0 0.325 3.775
v 0.1278789 0.299918 3.775
v 0.2310313 0.2310313 3.775
v 0.299918 0.1278789 3.775
v 0 0.196875 3.578125
v 0.07739209 0.1816567 3.578125
v 0.1398867 0.1398867 3.578125
v 0.1816567 0.07739209 3.578125
v 0 0.2 3.4
v 0.0785 0.1845 3.4
v 0.142 0.142 3.4
v 0.1845 0.0785 3.4
v -0.3143452 0.1340513 3.934375
v -0.2421602 0.2421602 3.934375
v -0.1340513 0.3143452 3.934375
v -0.299918 0.1278789 3.775
v -0.2310313 0.2310313 3.775
v -0.1278789 0.299918 3.775
v -0.1816567 0.07739209 3.578125
v -0.1398867 0.1398867 3.578125
v -0.07739209 0.1816567 3.578125
v -0.1845 0.0785 3.4
v -0.142 0.142 3.4
v -0.0785 0.1845 3.4
v -0.45625 0 3.28125
v -0.4208906 -0.1790781 3.28125
v -0.3239375 -0.3239375 3.28125
v -0.1790781 -0.4208906 3.28125
v 0 -0.45625 3.28125
v -0.825 0 3.2
v -0.7610625 -0.3238125 3.2
v -0.58575 -0.58575 3.2
v -0.3238125 -0.7610625 3.2
v 0 -0.825 3.2
v -1.15625 0 3.11875
v -1.066641 -0.4538281 3.11875
v -0.8209375 -0.8209375 3.11875
v -0.4538281 -1.066641 3.11875
v 0 -1.15625 3.11875
v -1.3 0 3
v -1.19925 -0.51025 3
v -0.923 -0.923 3
v -0.51025 -1.19925 3
v 0 -1.3 3
v 0.1790781 -0.4208906 3.28125
v 0.3239375 -0.3239375 3.28125
v 0.4208906 -0.1790781 3.28125
v 0.45625 0 3.28125
v 0.3238125 -0.7610625 3.2
v 0.58575 -0.58575 3.2
v 0.7610625 -0.3238125 3.2
v 0.825 0 3.2
v 0.4538281 -1.066641 3.11875
v 0.8209375 -0.8209375 3.11875
v 1.066641 -0.4538281 3.11875
v 1.15625 0 3.11875
v 0.51025 -1.19925 3
v 0.923 -0.923 3
v 1.19925 -0.51025 3
v 1.3 0 3
v 0 0.45625 3.28125
v 0.1790781 0.4208906 3.28125
v 0.3239375 0.3239375 3.28125
v 0.4208906 0.1790781 3.28125
v 0 0.825 3.2
v 0.3238125 0.7610625 3.2
v 0.58575 0.58575 3.2
v 0.7610625 0.3238125 3.2
v 0 1.15625 3.11875
v 0.4538281 1.066641 3.11875
v 0.8209375 0.8209375 3.11875
v 1.066641 0.4538281 3.11875
v 0 1.3 3
v 0.51025 1.19925 3
v 0.923 0.923 3
v 1.19925 0.51025 3
v -0.4208906 0.1790781 3.28125
v -0.3239375 0.3239375 3.28125
v -0.1790781 0.4208906 3.28125
v -0.7610625 0.3238125 3.2
v -0.58575 0.58575 3.2
v -0.3238125 0.7610625 3.2
v -1.066641 0.4538281 3.11875
v -0.8209375 0.8209375 3.11875
v -0.4538281 1.066641 3.11875
v -1.19925 0.51025 3
v -0.923 0.923 3
v -0.51025 1.19925 3
v -1.4 0 3
v -1.2915 -0.5495 3
v -0.994 -0.994 3
v -0.5495 -1.2915 3
v 0 -1.4 3
v -1.380469 0 3.098437
v -1.273482 -0.5418339 3.098437
v -0.9801328 -0.9801328 3.098437
v -0.5418339 -1.273482 3.098437
v 0 -1.380469 3.098437
v -1.403125 0 3.13125
v -1.294383 -0.5507266 3.13125
v -0.9962187 -0.9962187 3.13125
v -0.5507266 -1.294383 3.13125
v 0 -1.403125 3.13125
v -1.449219 0 3.098438
v -1.336904 -0.5688183 3.098438
v -1.028945 -1.028945 3.098438
v -0.5688183 -1.336904 3.098438
v 0 -1.449219 3.098438
v -1.5 0 3
v -1.38375 -0.58875 3
v -1.065 -1.065 3
v -0.58875 -1.38375 3
v 0 -1.5 3
v 0.5495 -1.2915 3
v 0.994 -0.994 3
v 1.2915 -0.5495 3
v 1.4 0 3
v 0.5418339 -1.273482 3.098437
v 0.9801328 -0.9801328 3.098437
v 1.273482 -0.5418339 3.098437
v 1.380469 0 3.098437
v 0.5507266 -1.294383 3.13125
v 0.9962187 -0.9962187 3.13125
v 1.294383 -0.5507266 3.13125
v 1.403125 0 3.13125
v 0.5688183 -1.336904 3.098438
v 1.028945 -1.028945 3.098438
v 1.336904 -0.5688183 3.098438
v 1.449219 0 3.098438
v 0.58875 -1.38375 3
v 1.065 -1.065 3
v 1.38375 -0.58875 3
v 1.5 0 3
v 0 1.4 3
v 0.5495 1.2915 3
v 0.994 0.994 3
v 1.2915 0.5495 3
v 0 1.380469 3.098437
v 0.5418339 1.273482 3.098437
v 0.9801328 0.9801328 3.098437
v 1.273482 0.5418339 3.098437
v 0 1.403125 3.13125
v 0.5507266 1.294383 3.13125
v 0.9962187 0.9962187 3.13125
v 1.294383 0.5507266 3.13125
v 0 1.449219 3.098438
v 0.5688183 1.336904 3.098438
v 1.028945 1.028945 3.098438
v 1.336904 0.5688183 3.098438
v 0 1.5 3
v 0.58875 1.38375 3
v 1.065 1.065 3
v 1.38375 0.58875 3
v -1.2915 0.5495 3
v -0.994 0.994 3
v -0.5495 1.2915 3
v -1.273482 0.5418339 3.098437
v -0.9801328 0.9801328 3.098437
v -0.5418339 1.273482 3.098437
v -1.294383 0.5507266 3.13125
v -0.9962187 0.9962187 3.13125
v -0.5507266 1.294383 3.13125
v -1.336904 0.5688183 3.098438
v -1.028945 1.028945 3.098438
v -0.5688183 1.336904 3.098438
v -1.38375 0.58875 3
v -1.065 1.065 3
v -0.58875 1.38375 3
v -1.683594 0 2.476562
v -1.553115 -0.6608105 2.476562
v -1.195352 -1.195352 2.476562
v -0.6608105 -1.553115 2.476562
v 0 -1.683594 2.476562
v -1.84375 0 1.9625
v -1.700859 -0.7236719 1.9625
v -1.309063 -1.309063 1.9625
v -0.7236719 -1.700859 1.9625
v 0 -1.84375 1.9625
v -1.957031 0 1.467188
v -1.805361 -0.7681348 1.467188
v -1.389492 -1.389492 1.467188
v -0.7681348 -1.805361 1.467188
v 0 -1.957031 1.467188
v -2 0 1
v -1.845 -0.785 1
v -1.42 -1.42 1
v -0.785 -1.845 1
v 0 -2 1
v 0.6608105 -1.553115 2.476562
v 1.195352 -1.195352 2.476562
v 1.553115 -0.6608105 2.476562
v 1.683594 0 2.476562
v 0.7236719 -1.700859 1.9625
v 1.309063 -1.309063 1.9625
v 1.700859 -0.7236719 1.9625
v 1.84375 0 1.9625
v 0.7681348 -1.805361 1.467188
v 1.389492 -1.389492 1.467188
v 1.805361 -0.7681348 1.467188
v 1.957031 0 1.467188
v 0.785 -1.845 1
v 1.42 -1.42 1
v 1.845 -0.785 1
v 2 0 1
v 0 1.683594 2.476562
v 0.6608105 1.553115 2.476562
v 1.195352 1.195352 2.476562
v 1.553115 0.6608105 2.476562
v 0 1.84375 1.9625
v 0.7236719 1.700859 1.9625
v 1.309063 1.309063 1.9625
v 1.700859 0.7236719 1.9625
v 0 1.957031 1.467188
v 0.7681348 1.805361 1.467188
v 1.389492 1.389492 1.467188
v 1.805361 0.7681348 1.467188
v 0 2 1
v 0.785 1.845 1
v 1.42 1.42 1
v 1.845 0.785 1
v -1.553115 0.6608105 2.476562
v -1.195352 1.195352 2.476562
v -0.6608105 1.553115 2.476562
v -1.700859 0.7236719 1.9625
v -1.309063 1.309063 1.9625
v -0.7236719 1.700859 1.9625
v -1.805361 0.7681348 1.467188
v -1.389492 1.389492 1.467188
v -0.7681348 1.805361 1.467188
v -1.845 0.785 1
v -1.42 1.42 1
v -0.785 1.845 1
v -1.921875 0 0.6046876
v -1.77293 -0.7543359 0.6046876
v -1.364531 -1.364531 0.6046876
v -0.7543359 -1.77293 0.6046876
v 0 -1.921875 0.6046876
v -1.75 0 0.3125
v -1.614375 -0.686875 0.3125
v -1.2425 -1.2425 0.3125
v -0.686875 -1.614375 0.3125
v 0 -1.75 0.3125
v -1.578125 0 0.1140625
v -1.45582 -0.6194141 0.1140625
v -1.120469 -1.120469 0.1140625
v -0.6194141 -1.45582 0.1140625
v 0 -1.578125 0.1140625
v -1.5 0 0
v -1.38375 -0.58875 0
v -1.065 -1.065 1.490116e-8
v -0.58875 -1.38375 0
v 0 -1.5 0
v 0.7543359 -1.77293 0.6046876
v 1.364531 -1.364531 0.6046876
v 1.77293 -0.7543359 0.6046876
v 1.921875 0 0.6046876
v 0.686875 -1.614375 0.3125
v 1.2425 -1.2425 0.3125
v 1.614375 -0.686875 0.3125
v 1.75 0 0.3125
v 0.6194141 -1.45582 0.1140625
v 1.120469 -1.120469 0.1140625
v 1.45582 -0.6194141 0.1140625
v 1.578125 0 0.1140625
v 0.58875 -1.38375 0
v 1.065 -1.065 1.490116e-8
v 1.38375 -0.58875 0
v 1.5 0 0
v 0 1.921875 0.6046876
v 0.7543359 1.77293 0.6046876
v 1.364531 1.364531 0.6046876
v 1.77293 0.7543359 0.6046876
v 0 1.75 0.3125
v 0.686875 1.614375 0.3125
v 1.2425 1.2425 0.3125
v 1.614375 0.686875 0.3125
v 0 1.578125 0.1140625
v 0.6194141 1.45582 0.1140625
v 1.120469 1.120469 0.1140625
v 1.45582 0.6194141 0.1140625
v 0 1.5 0
v 0.58875 1.38375 0
v 1.065 1.065 1.490116e-8
v 1.38375 0.58875 0
v -1.77293 0.7543359 0.6046876
v -1.364531 1.364531 0.6046876
v -0.7543359 1.77293 0.6046876
v -1.614375 0.686875 0.3125
v -1.2425 1.2425 0.3125
v -0.686875 1.614375 0.3125
v -1.45582 0.6194141 0.1140625
v -1.120469 1.120469 0.1140625
v -0.6194141 1.45582 0.1140625
v -1.38375 0.58875 0
v -1.065 1.065 1.490116e-8
v -0.58875 1.38375 0

vn 0 0 1
vn 0 -0.5999999 0.8000001
vn 0 -1 0
vn 0 -0.6 -0.8000001
vn 0 0 -1
vn -0.04993761 0 0.9987524
vn -0.0385204 -0.5990452 0.7997881
vn 0 -1 0
vn 0.03014645 -0.5980148 -0.8009179
vn 0.03446227 0 -0.999406
vn -0.2873479 0 0.9578263
vn -0.2183381 -0.6138446 0.7586325
vn 0 -1 0
vn 0.17133 -0.6025491 -0.7794745
vn 0.1961161 0 -0.9805806
vn -0.8035572 0 0.5952276
vn -0.6116433 -0.6332767 0.4741868
vn 0 -1 0
vn 0.5424517 -0.6234426 -0.5630856
vn 0.6567807 0 -0.7540817
vn -1 0 0
vn -0.8000001 -0.5999999 0
vn 0 -1 0
vn 0.8000001 -0.5999999 0
vn 1 0 0
vn 0 0.5999999 0.8000001
vn 0 1 0
vn 0 0.6 -0.8000001
vn -0.0385204 0.5990452 0.7997881
vn 0 1 0
vn 0.03014645 0.5980148 -0.8009179
vn -0.2183381 0.6138446 0.7586325
vn 0 1 0
vn 0.17133 0.6025491 -0.7794745
vn -0.6116433 0.6332767 0.4741868
vn 0 1 0
vn 0.5424517 0.6234426 -0.5630856
vn -0.8000001 0.5999999 0
vn 0 1 0
vn 0.8000001 0.5999999 0
vn -0.9547581 0 -0.2973836
vn -0.7561826 -0.6123331 -0.2307295
vn 0 -1 0
vn 0.7662326 -0.608715 0.2057999
vn 0.9683917 0 0.2494342
vn -0.8290722 0 -0.5591416
vn -0.6686938 -0.6027781 -0.4353242
vn 0 -1 0
vn 0.7137226 -0.5887686 0.3794095
vn 0.8944272 0 0.4472137
vn -0.6682677 0 -0.7439209
vn -0.5576904 -0.5711757 -0.6022788
vn 0 -1 0
vn 0.618154 -0.5495863 0.561997
vn 0.7568229 0 0.6536199
vn -0.5144956 0 -0.857493
vn -0.4157752 -0.5890152 -0.692959
vn 0 -1 0
vn 0.4157753 -0.5890151 0.692959
vn 0.5144957 0 0.8574929
vn -0.7561826 0.6123331 -0.2307295
vn 0 1 0
vn 0.7662326 0.608715 0.2057999
vn -0.6686938 0.6027781 -0.4353242
vn 0 1 0
vn 0.7137226 0.5887686 0.3794095
vn -0.5576904 0.5711757 -0.6022788
vn 0 1 0
vn 0.618154 0.5495863 0.561997
vn -0.4157752 0.5890152 -0.692959
vn 0 1 0
vn 0.4157753 0.5890151 0.692959
vn 0.7071059 0 -0.7071076
vn 0.3980664 0.796133 -0.4557581
vn 0 1 0
vn -0.3642038 0.7284078 0.5803254
vn -0.5144954 0 0.8574931
vn 0.9701423 0 -0.2425365
vn 0.3891297 0.9146191 0.1097721
vn -0.0220078 0.8886942 0.457972
vn -0.2836559 0.5720281 0.7696253
vn -0.3983872 0 0.9172173
vn 0 0 1
vn -0.03980585 0.01534315 0.9990896
vn -0.04643553 -0.07911264 0.9957836
vn 0.02455771 -0.1596268 0.9868719
vn 0.1414206 0 0.9899496
vn -0.4961386 0 0.8682433
vn -0.3097298 -0.595172 0.7415105
vn -0.01196395 -0.8992128 0.4373481
vn 0.4279828 -0.8653762 -0.2606813
vn 0.6472303 0 -0.7622945
vn -0.7071068 0 0.7071068
vn -0.4239662 -0.7631391 0.4877206
vn 0 -1 0
vn 0.374791 -0.6746236 -0.6359361
vn 0.4856427 0 -0.8741574
vn 0.3980664 -0.796133 -0.4557581
vn 0 -1 0
vn -0.3642038 -0.7284078 0.5803254
vn 0.3891297 -0.9146191 0.1097721
vn -0.0220078 -0.8886942 0.457972
vn -0.2836559 -0.5720281 0.7696253
vn -0.03980585 -0.01534315 0.9990896
vn -0.04643553 0.07911264 0.9957836
vn 0.02455771 0.1596268 0.9868719
vn -0.3097298 0.595172 0.7415105
vn -0.01196395 0.8992128 0.4373481
vn 0.4279828 0.8653762 -0.2606813
vn -0.4239662 0.7631391 0.4877206
vn 0 1 0
vn 0.374791 0.6746236 -0.6359361
vn -0.9578263 0 0.2873479
vn -0.6525308 -0.6943228 0.3035117
vn 0.06315721 -0.9889189 0.1343527
vn 0.7020437 -0.6881685 -0.1831903
vn 0.9384544 0 -0.3454033
vn -0.9529258 0 0.3032037
vn -0.7207113 -0.6117364 0.3261193
vn 0.2156225 -0.9669339 0.1361827
vn 0.8433769 -0.5207462 -0.1324342
vn 0.9756098 0 -0.2195122
vn -0.6545009 0 0.7560613
vn -0.4156121 -0.7082981 0.5705966
vn 0.1701451 -0.9842053 0.04889227
vn 0.6541883 -0.6270556 -0.4228936
vn 0.8090093 0 -0.5877959
vn 0 0 1
vn -0.02992406 -0.7805191 0.6244154
vn 0 -1 0
vn 0.1187757 -0.7753411 -0.6202729
vn 0.2095291 0 -0.9778025
vn -0.6525308 0.6943228 0.3035117
vn 0.06315721 0.9889189 0.1343527
vn 0.7020437 0.6881685 -0.1831903
vn -0.7207113 0.6117364 0.3261193
vn 0.2156225 0.9669339 0.1361827
vn 0.8433769 0.5207462 -0.1324342
vn -0.4156121 0.7082981 0.5705966
vn 0.1701451 0.9842053 0.04889227
vn 0.6541883 0.6270556 -0.4228936
vn -0.02992406 0.7805191 0.6244154
vn 0 1 0
vn 0.1187757 0.7753411 -0.6202729
vn 0 0 1
vn -0.7071066 0 0.7071069
vn -0.6521515 -0.2704104 0.7082207
vn -0.4986729 -0.4986729 0.7089786
vn -0.2704104 -0.6521515 0.7082207
vn 0 -0.7071066 0.7071069
vn -0.8574929 0 -0.5144958
vn -0.7913435 -0.3282126 -0.5158022
vn -0.605398 -0.605398 -0.5167072
vn -0.3282126 -0.7913435 -0.5158022
vn 0 -0.8574929 -0.5144958
vn -0.8858315 0 -0.464007
vn -0.8173699 -0.3395786 -0.4653954
vn -0.6254995 -0.6254995 -0.4663696
vn -0.3395786 -0.8173699 -0.4653954
vn 0 -0.8858315 -0.464007
vn -0.7071068 0 0.7071067
vn -0.6518981 -0.2716242 0.7079893
vn -0.4989779 -0.4989779 0.7085493
vn -0.2716242 -0.6518981 0.7079893
vn 0 -0.7071068 0.7071067
vn 0.2704104 -0.6521515 0.7082207
vn 0.4986729 -0.4986729 0.7089786
vn 0.6521515 -0.2704104 0.7082207
vn 0.7071066 0 0.7071069
vn 0.3282126 -0.7913435 -0.5158022
vn 0.605398 -0.605398 -0.5167072
vn 0.7913435 -0.3282126 -0.5158022
vn 0.8574929 0 -0.5144958
vn 0.3395786 -0.8173699 -0.4653954
vn 0.6254995 -0.6254995 -0.4663696
vn 0.8173699 -0.3395786 -0.4653954
vn 0.8858315 0 -0.464007
vn 0.2716242 -0.6518981 0.7079893
vn 0.4989779 -0.4989779 0.7085493
vn 0.6518981 -0.2716242 0.7079893
vn 0.7071068 0 0.7071067
vn 0 0.7071066 0.7071069
vn 0.2704104 0.6521515 0.7082207
vn 0.4986729 0.4986729 0.7089786
vn 0.6521515 0.2704104 0.7082207
vn 0 0.8574929 -0.5144958
vn 0.3282126 0.7913435 -0.5158022
vn 0.605398 0.605398 -0.5167072
vn 0.7913435 0.3282126 -0.5158022
vn 0 0.8858315 -0.464007
vn 0.3395786 0.8173699 -0.4653954
vn 0.6254995 0.6254995 -0.4663696
vn 0.8173699 0.3395786 -0.4653954
vn 0 0.7071068 0.7071067
vn 0.2716242 0.6518981 0.7079893
vn 0.4989779 0.4989779 0.7085493
vn 0.6518981 0.2716242 0.7079893
vn -0.6521515 0.2704104 0.7082207
vn -0.4986729 0.4986729 0.7089786
vn -0.2704104 0.6521515 0.7082207
vn -0.7913435 0.3282126 -0.5158022
vn -0.605398 0.605398 -0.5167072
vn -0.3282126 0.7913435 -0.5158022
vn -0.8173699 0.3395786 -0.4653954
vn -0.6254995 0.6254995 -0.4663696
vn -0.3395786 0.8173699 -0.4653954
vn -0.6518981 0.2716242 0.7079893
vn -0.4989779 0.4989779 0.7085493
vn -0.2716242 0.6518981 0.7079893
vn -0.2676437 0 0.963518
vn -0.2464836 -0.1027015 0.9636899
vn -0.1885364 -0.1885364 0.9637988
vn -0.1027015 -0.2464836 0.9636899
vn 0 -0.2676437 0.963518
vn -0.1961161 0 0.9805807
vn -0.1805961 -0.07524836 0.9806746
vn -0.1381314 -0.1381314 0.9807341
vn -0.07524836 -0.1805961 0.9806746
vn 0 -0.1961161 0.9805807
vn -0.3363365 0 0.9417419
vn -0.3097775 -0.1290739 0.9420073
vn -0.2369655 -0.2369655 0.9421755
vn -0.1290739 -0.3097775 0.9420073
vn 0 -0.3363365 0.9417419
vn -1 0 0
vn -0.9230769 -0.3846154 0
vn -0.7071068 -0.7071068 0
vn -0.3846154 -0.9230769 0
vn 0 -1 0
vn 0.1027015 -0.2464836 0.9636899
vn 0.1885364 -0.1885364 0.9637988
vn 0.2464836 -0.1027015 0.9636899
vn 0.2676437 0 0.963518
vn 0.07524836 -0.1805961 0.9806746
vn 0.1381314 -0.1381314 0.9807341
vn 0.1805961 -0.07524836 0.9806746
vn 0.1961161 0 0.9805807
vn 0.1290739 -0.3097775 0.9420073
vn 0.2369655 -0.2369655 0.9421755
vn 0.3097775 -0.1290739 0.9420073
vn 0.3363365 0 0.9417419
vn 0.3846154 -0.9230769 0
vn 0.7071068 -0.7071068 0
vn 0.9230769 -0.3846154 0
vn 1 0 0
vn 0 0.2676437 0.963518
vn 0.1027015 0.2464836 0.9636899
vn 0.1885364 0.1885364 0.9637988
vn 0.2464836 0.1027015 0.9636899
vn 0 0.1961161 0.9805807
vn 0.07524836 0.1805961 0.9806746
vn 0.1381314 0.1381314 0.9807341
vn 0.1805961 0.07524836 0.9806746
vn 0 0.3363365 0.9417419
vn 0.1290739 0.3097775 0.9420073
vn 0.2369655 0.2369655 0.9421755
vn 0.3097775 0.1290739 0.9420073
vn 0 1 0
vn 0.3846154 0.9230769 0
vn 0.7071068 0.7071068 0
vn 0.9230769 0.3846154 0
vn -0.2464836 0.1027015 0.9636899
vn -0.1885364 0.1885364 0.9637988
vn -0.1027015 0.2464836 0.9636899
vn -0.1805961 0.07524836 0.9806746
vn -0.1381314 0.1381314 0.9807341
vn -0.07524836 0.1805961 0.9806746
vn -0.3097775 0.1290739 0.9420073
vn -0.2369655 0.2369655 0.9421755
vn -0.1290739 0.3097775 0.9420073
vn -0.9230769 0.3846154 0
vn -0.7071068 0.7071068 0
vn -0.3846154 0.9230769 0
vn 0.9417419 0 -0.3363365
vn 0.8690541 0.3621059 -0.3370821
vn 0.6656033 0.6656033 -0.3375565
vn 0.362106 0.8690543 -0.3370816
vn 0 0.9417419 -0.3363365
vn 0.9974588 0 0.07124718
vn 0.9207194 0.383633 0.07142446
vn 0.7052951 0.7052951 0.07153729
vn 0.3836331 0.9207194 0.07142431
vn 0 0.9974588 0.07124718
vn 0 0 1
vn 0 0 1
vn 0 0 1
vn 0 0 1
vn 0 0 1
vn -0.7863182 0 0.6178218
vn -0.7251398 -0.3021415 0.6187752
vn -0.5551424 -0.5551424 0.6193817
vn -0.3021415 -0.7251398 0.6187752
vn 0 -0.7863182 0.6178218
vn -0.9417419 0 0.3363365
vn -0.8690543 -0.3621059 0.3370815
vn -0.6656032 -0.6656032 0.3375569
vn -0.3621058 -0.8690541 0.337082
vn 0 -0.9417419 0.3363365
vn -0.3621059 0.8690541 -0.3370821
vn -0.6656033 0.6656033 -0.3375565
vn -0.8690543 0.362106 -0.3370816
vn -0.9417419 0 -0.3363365
vn -0.383633 0.9207194 0.07142446
vn -0.7052951 0.7052951 0.07153729
vn -0.9207194 0.3836331 0.07142431
vn -0.9974588 0 0.07124718
vn 0 0 1
vn 0 0 1
vn 0 0 1
vn 0 0 1
vn 0.3021415 -0.7251398 0.6187752
vn 0.5551424 -0.5551424 0.6193817
vn 0.7251398 -0.3021415 0.6187752
vn 0.7863182 0 0.6178218
vn 0.3621059 -0.8690543 0.3370815
vn 0.6656032 -0.6656032 0.3375569
vn 0.8690541 -0.3621058 0.337082
vn 0.9417419 0 0.3363365
vn 0 -0.9417419 -0.3363365
vn -0.3621059 -0.8690541 -0.3370821
vn -0.6656033 -0.6656033 -0.3375565
vn -0.8690543 -0.362106 -0.3370816
vn 0 -0.9974588 0.07124718
vn -0.383633 -0.9207194 0.07142446
vn -0.7052951 -0.7052951 0.07153729
vn -0.9207194 -0.3836331 0.07142431
vn 0 0 1
vn 0 0 1
vn 0 0 1
vn 0 0 1
vn 0 0.7863182 0.6178218
vn 0.3021415 0.7251398 0.6187752
vn 0.5551424 0.5551424 0.6193817
vn 0.7251398 0.3021415 0.6187752
vn 0 0.9417419 0.3363365
vn 0.3621059 0.8690543 0.3370815
vn 0.6656032 0.6656032 0.3375569
vn 0.8690541 0.3621058 0.337082
vn 0.8690541 -0.3621059 -0.3370821
vn 0.6656033 -0.6656033 -0.3375565
vn 0.362106 -0.8690543 -0.3370816
vn 0.9207194 -0.383633 0.07142446
vn 0.7052951 -0.7052951 0.07153729
vn 0.3836331 -0.9207194 0.07142431
vn 0 0 1
vn 0 0 1
vn 0 0 1
vn -0.7251398 0.3021415 0.6187752
vn -0.5551424 0.5551424 0.6193817
vn -0.3021415 0.7251398 0.6187752
vn -0.8690543 0.3621059 0.3370815
vn -0.6656032 0.6656032 0.3375569
vn -0.3621058 0.8690541 0.337082
vn -0.9473952 0 0.3200659
vn -0.8742946 -0.3642893 0.3207839
vn -0.6696284 -0.6696284 0.3212406
vn -0.3642893 -0.8742946 0.3207839
vn 0 -0.9473952 0.3200659
vn -0.9635179 0 0.2676438
vn -0.8892417 -0.3705173 0.2682649
vn -0.6811101 -0.6811101 0.2686601
vn -0.3705173 -0.8892417 0.2682649
vn 0 -0.9635179 0.2676438
vn -0.9858717 0 0.1675025
vn -0.9099715 -0.3791548 0.1679095
vn -0.6970363 -0.6970363 0.1681685
vn -0.3791548 -0.9099715 0.1679095
vn 0 -0.9858717 0.1675025
vn -1 0 0
vn -0.923077 -0.3846154 0
vn -0.7071068 -0.7071068 0
vn -0.3846154 -0.923077 0
vn 0 -1 0
vn 0.3642893 -0.8742946 0.3207839
vn 0.6696284 -0.6696284 0.3212406
vn 0.8742946 -0.3642893 0.3207839
vn 0.9473952 0 0.3200659
vn 0.3705173 -0.8892417 0.2682649
vn 0.6811101 -0.6811101 0.2686601
vn 0.8892417 -0.3705173 0.2682649
vn 0.9635179 0 0.2676438
vn 0.3791548 -0.9099715 0.1679095
vn 0.6970363 -0.6970363 0.1681685
vn 0.9099715 -0.3791548 0.1679095
vn 0.9858717 0 0.1675025
vn 0.3846154 -0.923077 0
vn 0.7071068 -0.7071068 0
vn 0.923077 -0.3846154 0
vn 1 0 0
vn 0 0.9473952 0.3200659
vn 0.3642893 0.8742946 0.3207839
vn 0.6696284 0.6696284 0.3212406
vn 0.8742946 0.3642893 0.3207839
vn 0 0.9635179 0.2676438
vn 0.3705173 0.8892417 0.2682649
vn 0.6811101 0.6811101 0.2686601
vn 0.8892417 0.3705173 0.2682649
vn 0 0.9858717 0.1675025
vn 0.3791548 0.9099715 0.1679095
vn 0.6970363 0.6970363 0.1681685
vn 0.9099715 0.3791548 0.1679095
vn 0 1 0
vn 0.3846154 0.923077 0
vn 0.7071068 0.7071068 0
vn 0.923077 0.3846154 0
vn -0.8742946 0.3642893 0.3207839
vn -0.6696284 0.6696284 0.3212406
vn -0.3642893 0.8742946 0.3207839
vn -0.8892417 0.3705173 0.2682649
vn -0.6811101 0.6811101 0.2686601
vn -0.3705173 0.8892417 0.2682649
vn -0.9099715 0.3791548 0.1679095
vn -0.6970363 0.6970363 0.1681685
vn -0.3791548 0.9099715 0.1679095
vn -0.923077 0.3846154 0
vn -0.7071068 0.7071068 0
vn -0.3846154 0.923077 0
vn -0.9249402 0 -0.3801124
vn -0.8534824 -0.3556176 -0.380925
vn -0.6536444 -0.6536444 -0.3814419
vn -0.3556176 -0.8534824 -0.380925
vn 0 -0.9249402 -0.3801124
vn -0.792624 0 -0.6097108
vn -0.730973 -0.3045721 -0.6106671
vn -0.5596175 -0.5596175 -0.6112745
vn -0.3045721 -0.730973 -0.6106671
vn 0 -0.792624 -0.6097108
vn -0.7399401 0 -0.6726727
vn -0.6822492 -0.2842705 -0.673592
vn -0.5222486 -0.5222486 -0.6741756
vn -0.2842705 -0.6822492 -0.673592
vn 0 -0.7399401 -0.6726727
vn -1 0 0
vn -0.9230769 -0.3846154 0
vn -0.7071068 -0.7071068 0
vn -0.3846154 -0.9230769 0
vn 0 -1 0
vn 0.3556176 -0.8534824 -0.380925
vn 0.6536444 -0.6536444 -0.3814419
vn 0.8534824 -0.3556176 -0.380925
vn 0.9249402 0 -0.3801124
vn 0.3045721 -0.730973 -0.6106671
vn 0.5596175 -0.5596175 -0.6112745
vn 0.730973 -0.3045721 -0.6106671
vn 0.792624 0 -0.6097108
vn 0.2842705 -0.6822492 -0.673592
vn 0.5222486 -0.5222486 -0.6741756
vn 0.6822492 -0.2842705 -0.673592
vn 0.7399401 0 -0.6726727
vn 0.3846154 -0.9230769 0
vn 0.7071068 -0.7071068 0
vn 0.9230769 -0.3846154 0
vn 1 0 0
vn 0 0.9249402 -0.3801124
vn 0.3556176 0.8534824 -0.380925
vn 0.6536444 0.6536444 -0.3814419
vn 0.8534824 0.3556176 -0.380925
vn 0 0.792624 -0.6097108
vn 0.3045721 0.730973 -0.6106671
vn 0.5596175 0.5596175 -0.6112745
vn 0.730973 0.3045721 -0.6106671
vn 0 0.7399401 -0.6726727
vn 0.2842705 0.6822492 -0.673592
vn 0.5222486 0.5222486 -0.6741756
vn 0.6822492 0.2842705 -0.673592
vn 0 1 0
vn 0.3846154 0.9230769 0
vn 0.7071068 0.7071068 0
vn 0.9230769 0.3846154 0
vn -0.8534824 0.3556176 -0.380925
vn -0.6536444 0.6536444 -0.3814419
vn -0.3556176 0.8534824 -0.380925
vn -0.730973 0.3045721 -0.6106671
vn -0.5596175 0.5596175 -0.6112745
vn -0.3045721 0.730973 -0.6106671
vn -0.6822492 0.2842705 -0.673592
vn -0.5222486 0.5222486 -0.6741756
vn -0.2842705 0.6822492 -0.673592
vn -0.9230769 0.3846154 0
vn -0.7071068 0.7071068 0
vn -0.3846154 0.9230769 0

vt 0.125 1
vt 0.1542969 1
vt 0.1835938 1
vt 0.2128906 1
vt 0.2421875 1
vt 0.125 0.920759
vt 0.1542969 0.920207
vt 0.1835938 0.91875
vt 0.2128906 0.9168284
vt 0.2421875 0.9157366
vt 0.125 0.8571429
vt 0.1542969 0.8561617
vt 0.1835938 0.8535714
vt 0.2128906 0.8501553
vt 0.2421875 0.8482143
vt 0.125 0.8024554
vt 0.1542969 0.8015355
vt 0.1835938 0.7991071
vt 0.2128906 0.7959045
vt 0.2421875 0.7940848
vt 0.125 0.75
vt 0.1542969 0.75
vt 0.1835938 0.75
vt 0.2128906 0.75
vt 0.2421875 0.75
vt 0.09570313 1
vt 0.06640625 1
vt 0.03710938 1
vt 0.0078125 1
vt 0.09570313 0.920207
vt 0.06640625 0.91875
vt 0.03710938 0.9168284
vt 0.0078125 0.9157366
vt 0.09570313 0.8561617
vt 0.06640625 0.8535714
vt 0.03710938 0.8501553
vt 0.0078125 0.8482143
vt 0.09570313 0.8015355
vt 0.06640625 0.7991071
vt 0.03710938 0.7959045
vt 0.0078125 0.7940848
vt 0.09570313 0.75
vt 0.06640625 0.75
vt 0.03710938 0.75
vt 0.0078125 0.75
vt 0.125 0.6994448
vt 0.1542969 0.7002899
vt 0.1835938 0.7024906
vt 0.2128906 0.7052976
vt 0.2421875 0.7068352
vt 0.125 0.6450101
vt 0.1542969 0.6456107
vt 0.1835938 0.6471369
vt 0.2128906 0.6490237
vt 0.2421875 0.6500361
vt 0.125 0.5849454
vt 0.1542969 0.5850012
vt 0.1835938 0.5850898
vt 0.2128906 0.5851129
vt 0.2421875 0.5850939
vt 0.125 0.5175
vt 0.1542969 0.5175
vt 0.1835938 0.5175
vt 0.2128906 0.5175
vt 0.2421875 0.5175
vt 0.09570313 0.7002899
vt 0.06640625 0.7024906
vt 0.03710938 0.7052976
vt 0.0078125 0.7068352
vt 0.09570313 0.6456107
vt 0.06640625 0.6471369
vt 0.03710938 0.6490237
vt 0.0078125 0.6500361
vt 0.09570313 0.5850012
vt 0.06640625 0.5850898
vt 0.03710938 0.5851129
vt 0.0078125 0.5850939
vt 0.09570313 0.5175
vt 0.06640625 0.5175
vt 0.03710938 0.5175
vt 0.0078125 0.5175
vt 0.75 1
vt 0.78125 1
vt 0.8125 1
vt 0.84375 1
vt 0.875 1
vt 0.75 0.9804893
vt 0.78125 0.9797953
vt 0.8125 0.9786437
vt 0.84375 0.978073
vt 0.875 0.9779148
vt 0.75 0.9625
vt 0.78125 0.9621258
vt 0.8125 0.9614999
vt 0.84375 0.9611008
vt 0.875 0.9609703
vt 0.75 0.9445107
vt 0.78125 0.9446434
vt 0.8125 0.9448562
vt 0.84375 0.9448282
vt 0.875 0.9447906
vt 0.75 0.925
vt 0.78125 0.925
vt 0.8125 0.925
vt 0.84375 0.925
vt 0.875 0.925
vt 1 1
vt 0.96875 1
vt 0.9375 1
vt 0.90625 1
vt 1 0.9804893
vt 0.96875 0.9797953
vt 0.9375 0.9786437
vt 0.90625 0.978073
vt 1 0.9625
vt 0.96875 0.9621258
vt 0.9375 0.9614999
vt 0.90625 0.9611008
vt 1 0.9445107
vt 0.96875 0.9446434
vt 0.9375 0.9448562
vt 0.90625 0.9448282
vt 1 0.925
vt 0.96875 0.925
vt 0.9375 0.925
vt 0.90625 0.925
vt 0.75 0.8415551
vt 0.78125 0.8409839
vt 0.8125 0.8396048
vt 0.84375 0.8383757
vt 0.875 0.8378703
vt 0.75 0.7405194
vt 0.78125 0.738839
vt 0.8125 0.7362506
vt 0.84375 0.7345079
vt 0.875 0.7338991
vt 0.75 0.6287944
vt 0.78125 0.626845
vt 0.8125 0.6243414
vt 0.84375 0.6229564
vt 0.875 0.6225487
vt 0.75 0.5132812
vt 0.78125 0.5132812
vt 0.8125 0.5132812
vt 0.84375 0.5132812
vt 0.875 0.5132812
vt 1 0.8415551
vt 0.96875 0.8409839
vt 0.9375 0.8396048
vt 0.90625 0.8383757
vt 1 0.7405194
vt 0.96875 0.738839
vt 0.9375 0.7362506
vt 0.90625 0.7345079
vt 1 0.6287944
vt 0.96875 0.626845
vt 0.9375 0.6243414
vt 0.90625 0.6229564
vt 1 0.5132812
vt 0.96875 0.5132812
vt 0.9375 0.5132812
vt 0.90625 0.5132812
vt 0.375 0.75
vt 0.375 0.6780881
vt 0.3887655 0.6835345
vt 0.4004423 0.6991153
vt 0.4082327 0.7224691
vt 0.4109559 0.75
vt 0.375 0.6098246
vt 0.4018288 0.6204593
vt 0.4245822 0.6508355
vt 0.4397703 0.6963425
vt 0.4450877 0.75
vt 0.375 0.553055
vt 0.4126891 0.5680209
vt 0.4446471 0.6107059
vt 0.4659896 0.6746218
vt 0.4734725 0.75
vt 0.375 0.515625
vt 0.4198457 0.5334657
vt 0.4578641 0.5842718
vt 0.4832671 0.6603086
vt 0.4921875 0.75
vt 0.4082327 0.7775309
vt 0.4004423 0.8008847
vt 0.3887655 0.8164655
vt 0.375 0.8219119
vt 0.4397703 0.8036575
vt 0.4245822 0.8491645
vt 0.4018287 0.8795407
vt 0.375 0.8901754
vt 0.4659895 0.8253782
vt 0.4446471 0.8892941
vt 0.4126891 0.9319791
vt 0.375 0.946945
vt 0.4832671 0.8396914
vt 0.457864 0.9157282
vt 0.4198457 0.9665343
vt 0.375 0.984375
vt 0.3390441 0.75
vt 0.3417673 0.7775309
vt 0.3495577 0.8008847
vt 0.3612345 0.8164655
vt 0.3049123 0.75
vt 0.3102297 0.8036575
vt 0.3254178 0.8491645
vt 0.3481713 0.8795407
vt 0.2765275 0.75
vt 0.2840105 0.8253782
vt 0.3053529 0.8892941
vt 0.3373109 0.9319791
vt 0.2578125 0.75
vt 0.2667329 0.8396914
vt 0.292136 0.9157282
vt 0.3301543 0.9665343
vt 0.3612345 0.6835345
vt 0.3495577 0.6991153
vt 0.3417673 0.7224691
vt 0.3481712 0.6204593
vt 0.3254178 0.6508355
vt 0.3102297 0.6963425
vt 0.3373109 0.5680209
vt 0.3053529 0.6107059
vt 0.2840104 0.6746218
vt 0.3301543 0.5334657
vt 0.2921359 0.5842718
vt 0.2667329 0.6603086
vt 0.625 0.7139423
vt 0.6318994 0.716687
vt 0.6377483 0.7245034
vt 0.6416565 0.7362013
vt 0.6430289 0.75
vt 0.625 0.6698761
vt 0.6403304 0.6759782
vt 0.6533262 0.6933476
vt 0.6620109 0.7193391
vt 0.665062 0.75
vt 0.625 0.6103284
vt 0.6517271 0.6209503
vt 0.6743875 0.651225
vt 0.6895248 0.6965459
vt 0.6948358 0.75
vt 0.625 0.5530083
vt 0.6626964 0.5679855
vt 0.6946582 0.6106837
vt 0.7160072 0.6746072
vt 0.7234958 0.75
vt 0.625 0.515625
vt 0.6698457 0.5334657
vt 0.707864 0.5842718
vt 0.7332671 0.6603086
vt 0.7421875 0.75
vt 0.6416565 0.7637987
vt 0.6377483 0.7754967
vt 0.6318994 0.783313
vt 0.625 0.7860577
vt 0.6620109 0.7806609
vt 0.6533262 0.8066524
vt 0.6403304 0.8240218
vt 0.625 0.8301239
vt 0.6895248 0.8034541
vt 0.6743875 0.848775
vt 0.651727 0.8790497
vt 0.625 0.8896716
vt 0.7160072 0.8253928
vt 0.6946582 0.8893163
vt 0.6626964 0.9320145
vt 0.625 0.9469917
vt 0.7332671 0.8396914
vt 0.707864 0.9157282
vt 0.6698457 0.9665343
vt 0.625 0.984375
vt 0.6069711 0.75
vt 0.6083435 0.7637987
vt 0.6122517 0.7754967
vt 0.6181006 0.783313
vt 0.584938 0.75
vt 0.5879891 0.7806609
vt 0.5966738 0.8066524
vt 0.6096696 0.8240218
vt 0.5551642 0.75
vt 0.5604752 0.8034541
vt 0.5756125 0.848775
vt 0.598273 0.8790497
vt 0.5265042 0.75
vt 0.5339928 0.8253928
vt 0.5553418 0.8893163
vt 0.5873036 0.9320145
vt 0.5078125 0.75
vt 0.5167329 0.8396914
vt 0.542136 0.9157282
vt 0.5801543 0.9665343
vt 0.6181006 0.716687
vt 0.6122517 0.7245034
vt 0.6083435 0.7362013
vt 0.6096696 0.6759782
vt 0.5966738 0.6933476
vt 0.5879891 0.7193391
vt 0.5982729 0.6209503
vt 0.5756125 0.651225
vt 0.5604752 0.6965459
vt 0.5873036 0.5679855
vt 0.5553418 0.6106837
vt 0.5339928 0.6746072
vt 0.5801543 0.5334657
vt 0.542136 0.5842718
vt 0.5167329 0.6603086
vt 0 0.5
vt 0.0625 0.5
vt 0.125 0.5
vt 0.1875 0.5
vt 0.25 0.5
vt 0 0.4887835
vt 0.0625 0.4887857
vt 0.125 0.4887871
vt 0.1875 0.4887857
vt 0.25 0.4887835
vt 0 0.479
vt 0.0625 0.479
vt 0.125 0.479
vt 0.1875 0.479
vt 0.25 0.479
vt 0 0.4692165
vt 0.0625 0.4692143
vt 0.125 0.4692129
vt 0.1875 0.4692143
vt 0.25 0.4692165
vt 0 0.458
vt 0.0625 0.458
vt 0.125 0.458
vt 0.1875 0.458
vt 0.25 0.458
vt 0.3125 0.5
vt 0.375 0.5
vt 0.4375 0.5
vt 0.5 0.5
vt 0.3125 0.4887857
vt 0.375 0.4887871
vt 0.4375 0.4887857
vt 0.5 0.4887835
vt 0.3125 0.479
vt 0.375 0.479
vt 0.4375 0.479
vt 0.5 0.479
vt 0.3125 0.4692143
vt 0.375 0.4692129
vt 0.4375 0.4692143
vt 0.5 0.4692165
vt 0.3125 0.458
vt 0.375 0.458
vt 0.4375 0.458
vt 0.5 0.458
vt 0.75 0.5
vt 0.6875 0.5
vt 0.625 0.5
vt 0.5625 0.5
vt 0.75 0.4887835
vt 0.6875 0.4887857
vt 0.625 0.4887871
vt 0.5625 0.4887857
vt 0.75 0.479
vt 0.6875 0.479
vt 0.625 0.479
vt 0.5625 0.479
vt 0.75 0.4692165
vt 0.6875 0.4692143
vt 0.625 0.4692129
vt 0.5625 0.4692143
vt 0.75 0.458
vt 0.6875 0.458
vt 0.625 0.458
vt 0.5625 0.458
vt 1 0.5
vt 0.9375 0.5
vt 0.875 0.5
vt 0.8125 0.5
vt 1 0.4887835
vt 0.9375 0.4887857
vt 0.875 0.4887871
vt 0.8125 0.4887857
vt 1 0.479
vt 0.9375 0.479
vt 0.875 0.479
vt 0.8125 0.479
vt 1 0.4692165
vt 0.9375 0.4692143
vt 0.875 0.4692129
vt 0.8125 0.4692143
vt 1 0.458
vt 0.9375 0.458
vt 0.875 0.458
vt 0.8125 0.458
vt 0 0.4077078
vt 0.0625 0.4077039
vt 0.125 0.4077015
vt 0.1875 0.4077039
vt 0.25 0.4077078
vt 0 0.3586324
vt 0.0625 0.3586262
vt 0.125 0.3586224
vt 0.1875 0.3586262
vt 0.25 0.3586324
vt 0 0.3119909
vt 0.0625 0.3119854
vt 0.125 0.311982
vt 0.1875 0.3119854
vt 0.25 0.3119909
vt 0 0.269
vt 0.0625 0.269
vt 0.125 0.269
vt 0.1875 0.269
vt 0.25 0.269
vt 0.3125 0.4077039
vt 0.375 0.4077015
vt 0.4375 0.4077039
vt 0.5 0.4077078
vt 0.3125 0.3586262
vt 0.375 0.3586224
vt 0.4375 0.3586262
vt 0.5 0.3586324
vt 0.3125 0.3119854
vt 0.375 0.311982
vt 0.4375 0.3119854
vt 0.5 0.3119909
vt 0.3125 0.269
vt 0.375 0.269
vt 0.4375 0.269
vt 0.5 0.269
vt 0.75 0.4077078
vt 0.6875 0.4077039
vt 0.625 0.4077015
vt 0.5625 0.4077039
vt 0.75 0.3586324
vt 0.6875 0.3586262
vt 0.625 0.3586224
vt 0.5625 0.3586262
vt 0.75 0.3119909
vt 0.6875 0.3119854
vt 0.625 0.311982
vt 0.5625 0.3119854
vt 0.75 0.269
vt 0.6875 0.269
vt 0.625 0.269
vt 0.5625 0.269
vt 1 0.4077078
vt 0.9375 0.4077039
vt 0.875 0.4077015
vt 0.8125 0.4077039
vt 1 0.3586324
vt 0.9375 0.3586262
vt 0.875 0.3586224
vt 0.8125 0.3586262
vt 1 0.3119909
vt 0.9375 0.3119854
vt 0.875 0.311982
vt 0.8125 0.3119854
vt 1 0.269
vt 0.9375 0.269
vt 0.875 0.269
vt 0.8125 0.269
vt 0 0.2282345
vt 0.0625 0.2282532
vt 0.125 0.2282648
vt 0.1875 0.2282532
vt 0.25 0.2282345
vt 0 0.1921104
vt 0.0625 0.1921251
vt 0.125 0.1921341
vt 0.1875 0.1921251
vt 0.25 0.1921104
vt 0 0.1646811
vt 0.0625 0.1646844
vt 0.125 0.1646864
vt 0.1875 0.1646844
vt 0.25 0.1646811
vt 0 0.15
vt 0.0625 0.15
vt 0.125 0.15
vt 0.1875 0.15
vt 0.25 0.15
vt 0.3125 0.2282532
vt 0.375 0.2282648
vt 0.4375 0.2282532
vt 0.5 0.2282345
vt 0.3125 0.1921251
vt 0.375 0.1921341
vt 0.4375 0.1921251
vt 0.5 0.1921104
vt 0.3125 0.1646844
vt 0.375 0.1646864
vt 0.4375 0.1646844
vt 0.5 0.1646811
vt 0.3125 0.15
vt 0.375 0.15
vt 0.4375 0.15
vt 0.5 0.15
vt 0.75 0.2282345
vt 0.6875 0.2282532
vt 0.625 0.2282648
vt 0.5625 0.2282532
vt 0.75 0.1921104
vt 0.6875 0.1921251
vt 0.625 0.1921341
vt 0.5625 0.1921251
vt 0.75 0.1646811
vt 0.6875 0.1646844
vt 0.625 0.1646864
vt 0.5625 0.1646844
vt 0.75 0.15
vt 0.6875 0.15
vt 0.625 0.15
vt 0.5625 0.15
vt 1 0.2282345
vt 0.9375 0.2282532
vt 0.875 0.2282648
vt 0.8125 0.2282532
vt 1 0.1921104
vt 0.9375 0.1921251
vt 0.875 0.1921341
vt 0.8125 0.1921251
vt 1 0.1646811
vt 0.9375 0.1646844
vt 0.875 0.1646864
vt 0.8125 0.1646844
vt 1 0.15
vt 0.9375 0.15
vt 0.875 0.15
vt 0.8125 0.15

f 2/2/2 1/1/1 6/6/6
f 6/6/6 7/7/7 2/2/2
f 3/3/3 2/2/2 7/7/7
f 7/7/7 8/8/8 3/3/3
f 4/4/4 3/3/3 8/8/8
f 8/8/8 9/9/9 4/4/4
f 5/5/5 4/4/4 9/9/9
f 9/9/9 10/10/10 5/5/5
f 7/7/7 6/6/6 11/11/11
f 11/11/11 12/12/12 7/7/7
f 8/8/8 7/7/7 12/12/12
f 12/12/12 13/13/13 8/8/8
f 9/9/9 8/8/8 13/13/13
f 13/13/13 14/14/14 9/9/9
f 10/10/10 9/9/9 14/14/14
f 14/14/14 15/15/15 10/10/10
f 12/12/12 11/11/11 16/16/16
f 16/16/16 17/17/17 12/12/12
f 13/13/13 12/12/12 17/17/17
f 17/17/17 18/18/18 13/13/13
f 14/14/14 13/13/13 18/18/18
f 18/18/18 19/19/19 14/14/14
f 15/15/15 14/14/14 19/19/19
f 19/19/19 20/20/20 15/15/15
f 17/17/17 16/16/16 21/21/21
f 21/21/21 22/22/22 17/17/17
f 18/18/18 17/17/17 22/22/22
f 22/22/22 23/23/23 18/18/18
f 19/19/19 18/18/18 23/23/23
f 23/23/23 24/24/24 19/19/19
f 20/20/20 19/19/19 24/24/24
f 24/24/24 25/25/25 20/20/20
f 6/6/6 1/1/1 26/26/26
f 26/26/26 29/30/29 6/6/6
f 29/30/29 26/26/26 27/27/27
f 27/27/27 30/31/30 29/30/29
f 30/31/30 27/27/27 28/28/28
f 28/28/28 31/32/31 30/31/30
f 31/32/31 28/28/28 5/29/5
f 5/29/5 10/33/10 31/32/31
f 11/11/11 6/6/6 29/30/29
f 29/30/29 32/34/32 11/11/11
f 32/34/32 29/30/29 30/31/30
f 30/31/30 33/35/33 32/34/32
f 33/35/33 30/31/30 31/32/31
f 31/32/31 34/36/34 33/35/33
f 34/36/34 31/32/31 10/33/10
f 10/33/10 15/37/15 34/36/34
f 16/16/16 11/11/11 32/34/32
f 32/34/32 35/38/35 16/16/16
f 35/38/35 32/34/32 33/35/33
f 33/35/33 36/39/36 35/38/35
f 36/39/36 33/35/33 34/36/34
f 34/36/34 37/40/37 36/39/36
f 37/40/37 34/36/34 15/37/15
f 15/37/15 20/41/20 37/40/37
f 21/21/21 16/16/16 35/38/35
f 35/38/35 38/42/38 21/21/21
f 38/42/38 35/38/35 36/39/36
f 36/39/36 39/43/39 38/42/38
f 39/43/39 36/39/36 37/40/37
f 37/40/37 40/44/40 39/43/39
f 40/44/40 37/40/37 20/41/20
f 20/41/20 25/45/25 40/44/40
f 22/22/22 21/21/21 41/46/41
f 41/46/41 42/47/42 22/22/22
f 23/23/23 22/22/22 42/47/42
f 42/47/42 43/48/43 23/23/23
f 24/24/24 23/23/23 43/48/43
f 43/48/43 44/49/44 24/24/24
f 25/25/25 24/24/24 44/49/44
f 44/49/44 45/50/45 25/25/25
f 42/47/42 41/46/41 46/51/46
f 46/51/46 47/52/47 42/47/42
f 43/48/43 42/47/42 47/52/47
f 47/52/47 48/53/48 43/48/43
f 44/49/44 43/48/43 48/53/48
f 48/53/48 49/54/49 44/49/44
f 45/50/45 44/49/44 49/54/49
f 49/54/49 50/55/50 45/50/45
f 47/52/47 46/51/46 51/56/51
f 51/56/51 52/57/52 47/52/47
f 48/53/48 47/52/47 52/57/52
f 52/57/52 53/58/53 48/53/48
f 49/54/49 48/53/48 53/58/53
f 53/58/53 54/59/54 49/54/49
f 50/55/50 49/54/49 54/59/54
f 54/59/54 55/60/55 50/55/50
f 52/57/52 51/56/51 56/61/56
f 56/61/56 57/62/57 52/57/52
f 53/58/53 52/57/52 57/62/57
f 57/62/57 58/63/58 53/58/53
f 54/59/54 53/58/53 58/63/58
f 58/63/58 59/64/59 54/59/54
f 55/60/55 54/59/54 59/64/59
f 59/64/59 60/65/60 55/60/55
f 41/46/41 21/21/21 38/42/38
f 38/42/38 61/66/61 41/46/41
f 61/66/61 38/42/38 39/43/39
f 39/43/39 62/67/62 61/66/61
f 62/67/62 39/43/39 40/44/40
f 40/44/40 63/68/63 62/67/62
f 63/68/63 40/44/40 25/45/25
f 25/45/25 45/69/45 63/68/63
f 46/51/46 41/46/41 61/66/61
f 61/66/61 64/70/64 46/51/46
f 64/70/64 61/66/61 62/67/62
f 62/67/62 65/71/65 64/70/64
f 65/71/65 62/67/62 63/68/63
f 63/68/63 66/72/66 65/71/65
f 66/72/66 63/68/63 45/69/45
f 45/69/45 50/73/50 66/72/66
f 51/56/51 46/51/46 64/70/64
f 64/70/64 67/74/67 51/56/51
f 67/74/67 64/70/64 65/71/65
f 65/71/65 68/75/68 67/74/67
f 68/75/68 65/71/65 66/72/66
f 66/72/66 69/76/69 68/75/68
f 69/76/69 66/72/66 50/73/50
f 50/73/50 55/77/55 69/76/69
f 56/61/56 51/56/51 67/74/67
f 67/74/67 70/78/70 56/61/56
f 70/78/70 67/74/67 68/75/68
f 68/75/68 71/79/71 70/78/70
f 71/79/71 68/75/68 69/76/69
f 69/76/69 72/80/72 71/79/71
f 72/80/72 69/76/69 55/77/55
f 55/77/55 60/81/60 72/80/72
f 74/83/74 73/82/73 78/87/78
f 78/87/78 79/88/79 74/83/74
f 75/84/75 74/83/74 79/88/79
f 79/88/79 80/89/80 75/84/75
f 76/85/76 75/84/75 80/89/80
f 80/89/80 81/90/81 76/85/76
f 77/86/77 76/85/76 81/90/81
f 81/90/81 82/91/82 77/86/77
f 79/88/79 78/87/78 83/92/83
f 83/92/83 84/93/84 79/88/79
f 80/89/80 79/88/79 84/93/84
f 84/93/84 85/94/85 80/89/80
f 81/90/81 80/89/80 85/94/85
f 85/94/85 86/95/86 81/90/81
f 82/91/82 81/90/81 86/95/86
f 86/95/86 87/96/87 82/91/82
f 84/93/84 83/92/83 88/97/88
f 88/97/88 89/98/89 84/93/84
f 85/94/85 84/93/84 89/98/89
f 89/98/89 90/99/90 85/94/85
f 86/95/86 85/94/85 90/99/90
f 90/99/90 91/100/91 86/95/86
f 87/96/87 86/95/86 91/100/91
f 91/100/91 92/101/92 87/96/87
f 89/98/89 88/97/88 93/102/93
f 93/102/93 94/103/94 89/98/89
f 90/99/90 89/98/89 94/103/94
f 94/103/94 95/104/95 90/99/90
f 91/100/91 90/99/90 95/104/95
f 95/104/95 96/105/96 91/100/91
f 92/101/92 91/100/91 96/105/96
f 96/105/96 97/106/97 92/101/92
f 78/111/78 73/107/73 98/108/98
f 98/108/98 101/112/101 78/111/78
f 101/112/101 98/108/98 99/109/99
f 99/109/99 102/113/102 101/112/101
f 102/113/102 99/109/99 100/110/100
f 100/110/100 103/114/103 102/113/102
f 103/114/103 100/110/100 77/86/77
f 77/86/77 82/91/82 103/114/103
f 83/115/83 78/111/78 101/112/101
f 101/112/101 104/116/104 83/115/83
f 104/116/104 101/112/101 102/113/102
f 102/113/102 105/117/105 104/116/104
f 105/117/105 102/113/102 103/114/103
f 103/114/103 106/118/106 105/117/105
f 106/118/106 103/114/103 82/91/82
f 82/91/82 87/96/87 106/118/106
f 88/119/88 83/115/83 104/116/104
f 104/116/104 107/120/107 88/119/88
f 107/120/107 104/116/104 105/117/105
f 105/117/105 108/121/108 107/120/107
f 108/121/108 105/117/105 106/118/106
f 106/118/106 109/122/109 108/121/108
f 109/122/109 106/118/106 87/96/87
f 87/96/87 92/101/92 109/122/109
f 93/123/93 88/119/88 107/120/107
f 107/120/107 110/124/110 93/123/93
f 110/124/110 107/120/107 108/121/108
f 108/121/108 111/125/111 110/124/110
f 111/125/111 108/121/108 109/122/109
f 109/122/109 112/126/112 111/125/111
f 112/126/112 109/122/109 92/101/92
f 92/101/92 97/106/97 112/126/112
f 94/103/94 93/102/93 113/127/113
f 113/127/113 114/128/114 94/103/94
f 95/104/95 94/103/94 114/128/114
f 114/128/114 115/129/115 95/104/95
f 96/105/96 95/104/95 115/129/115
f 115/129/115 116/130/116 96/105/96
f 97/106/97 96/105/96 116/130/116
f 116/130/116 117/131/117 97/106/97
f 114/128/114 113/127/113 118/132/118
f 118/132/118 119/133/119 114/128/114
f 115/129/115 114/128/114 119/133/119
f 119/133/119 120/134/120 115/129/115
f 116/130/116 115/129/115 120/134/120
f 120/134/120 121/135/121 116/130/116
f 117/131/117 116/130/116 121/135/121
f 121/135/121 122/136/122 117/131/117
f 119/133/119 118/132/118 123/137/123
f 123/137/123 124/138/124 119/133/119
f 120/134/120 119/133/119 124/138/124
f 124/138/124 125/139/125 120/134/120
f 121/135/121 120/134/120 125/139/125
f 125/139/125 126/140/126 121/135/121
f 122/136/122 121/135/121 126/140/126
f 126/140/126 127/141/127 122/136/122
f 124/138/124 123/137/123 128/142/128
f 128/142/128 129/143/129 124/138/124
f 125/139/125 124/138/124 129/143/129
f 129/143/129 130/144/130 125/139/125
f 126/140/126 125/139/125 130/144/130
f 130/144/130 131/145/131 126/140/126
f 127/141/127 126/140/126 131/145/131
f 131/145/131 132/146/132 127/141/127
f 113/147/113 93/123/93 110/124/110
f 110/124/110 133/148/133 113/147/113
f 133/148/133 110/124/110 111/125/111
f 111/125/111 134/149/134 133/148/133
f 134/149/134 111/125/111 112/126/112
f 112/126/112 135/150/135 134/149/134
f 135/150/135 112/126/112 97/106/97
f 97/106/97 117/131/117 135/150/135
f 118/151/118 113/147/113 133/148/133
f 133/148/133 136/152/136 118/151/118
f 136/152/136 133/148/133 134/149/134
f 134/149/134 137/153/137 136/152/136
f 137/153/137 134/149/134 135/150/135
f 135/150/135 138/154/138 137/153/137
f 138/154/138 135/150/135 117/131/117
f 117/131/117 122/136/122 138/154/138
f 123/155/123 118/151/118 136/152/136
f 136/152/136 139/156/139 123/155/123
f 139/156/139 136/152/136 137/153/137
f 137/153/137 140/157/140 139/156/139
f 140/157/140 137/153/137 138/154/138
f 138/154/138 141/158/141 140/157/140
f 141/158/141 138/154/138 122/136/122
f 122/136/122 127/141/127 141/158/141
f 128/159/128 123/155/123 139/156/139
f 139/156/139 142/160/142 128/159/128
f 142/160/142 139/156/139 140/157/140
f 140/157/140 143/161/143 142/160/142
f 143/161/143 140/157/140 141/158/141
f 141/158/141 144/162/144 143/161/143
f 144/162/144 141/158/141 127/141/127
f 127/141/127 132/146/132 144/162/144
f 145/163/145 146/164/146 147/165/147
f 145/163/145 147/165/147 148/166/148
f 145/163/145 148/166/148 149/167/149
f 145/163/145 149/167/149 150/168/150
f 147/165/147 146/164/146 151/169/151
f 151/169/151 152/170/152 147/165/147
f 148/166/148 147/165/147 152/170/152
f 152/170/152 153/171/153 148/166/148
f 149/167/149 148/166/148 153/171/153
f 153/171/153 154/172/154 149/167/149
f 150/168/150 149/167/149 154/172/154
f 154/172/154 155/173/155 150/168/150
f 152/170/152 151/169/151 156/174/156
f 156/174/156 157/175/157 152/170/152
f 153/171/153 152/170/152 157/175/157
f 157/175/157 158/176/158 153/171/153
f 154/172/154 153/171/153 158/176/158
f 158/176/158 159/177/159 154/172/154
f 155/173/155 154/172/154 159/177/159
f 159/177/159 160/178/160 155/173/155
f 157/175/157 156/174/156 161/179/161
f 161/179/161 162/180/162 157/175/157
f 158/176/158 157/175/157 162/180/162
f 162/180/162 163/181/163 158/176/158
f 159/177/159 158/176/158 163/181/163
f 163/181/163 164/182/164 159/177/159
f 160/178/160 159/177/159 164/182/164
f 164/182/164 165/183/165 160/178/160
f 145/163/145 150/168/150 166/184/166
f 145/163/145 166/184/166 167/185/167
f 145/163/145 167/185/167 168/186/168
f 145/163/145 168/186/168 169/187/169
f 166/184/166 150/168/150 155/173/155
f 155/173/155 170/188/170 166/184/166
f 167/185/167 166/184/166 170/188/170
f 170/188/170 171/189/171 167/185/167
f 168/186/168 167/185/167 171/189/171
f 171/189/171 172/190/172 168/186/168
f 169/187/169 168/186/168 172/190/172
f 172/190/172 173/191/173 169/187/169
f 170/188/170 155/173/155 160/178/160
f 160/178/160 174/192/174 170/188/170
f 171/189/171 170/188/170 174/192/174
f 174/192/174 175/193/175 171/189/171
f 172/190/172 171/189/171 175/193/175
f 175/193/175 176/194/176 172/190/172
f 173/191/173 172/190/172 176/194/176
f 176/194/176 177/195/177 173/191/173
f 174/192/174 160/178/160 165/183/165
f 165/183/165 178/196/178 174/192/174
f 175/193/175 174/192/174 178/196/178
f 178/196/178 179/197/179 175/193/175
f 176/194/176 175/193/175 179/197/179
f 179/197/179 180/198/180 176/194/176
f 177/195/177 176/194/176 180/198/180
f 180/198/180 181/199/181 177/195/177
f 182/200/182 145/163/145 183/201/183
f 183/201/183 145/163/145 184/202/184
f 184/202/184 145/163/145 185/203/185
f 185/203/185 145/163/145 169/187/169
f 186/204/186 182/200/182 183/201/183
f 183/201/183 187/205/187 186/204/186
f 187/205/187 183/201/183 184/202/184
f 184/202/184 188/206/188 187/205/187
f 188/206/188 184/202/184 185/203/185
f 185/203/185 189/207/189 188/206/188
f 189/207/189 185/203/185 169/187/169
f 169/187/169 173/191/173 189/207/189
f 190/208/190 186/204/186 187/205/187
f 187/205/187 191/209/191 190/208/190
f 191/209/191 187/205/187 188/206/188
f 188/206/188 192/210/192 191/209/191
f 192/210/192 188/206/188 189/207/189
f 189/207/189 193/211/193 192/210/192
f 193/211/193 189/207/189 173/191/173
f 173/191/173 177/195/177 193/211/193
f 194/212/194 190/208/190 191/209/191
f 191/209/191 195/213/195 194/212/194
f 195/213/195 191/209/191 192/210/192
f 192/210/192 196/214/196 195/213/195
f 196/214/196 192/210/192 193/211/193
f 193/211/193 197/215/197 196/214/196
f 197/215/197 193/211/193 177/195/177
f 177/195/177 181/199/181 197/215/197
f 146/164/146 145/163/145 198/216/198
f 198/216/198 145/163/145 199/217/199
f 199/217/199 145/163/145 200/218/200
f 200/218/200 145/163/145 182/200/182
f 151/169/151 146/164/146 198/216/198
f 198/216/198 201/219/201 151/169/151
f 201/219/201 198/216/198 199/217/199
f 199/217/199 202/220/202 201/219/201
f 202/220/202 199/217/199 200/218/200
f 200/218/200 203/221/203 202/220/202
f 203/221/203 200/218/200 182/200/182
f 182/200/182 186/204/186 203/221/203
f 156/174/156 151/169/151 201/219/201
f 201/219/201 204/222/204 156/174/156
f 204/222/204 201/219/201 202/220/202
f 202/220/202 205/223/205 204/222/204
f 205/223/205 202/220/202 203/221/203
f 203/221/203 206/224/206 205/223/205
f 206/224/206 203/221/203 186/204/186
f 186/204/186 190/208/190 206/224/206
f 161/179/161 156/174/156 204/222/204
f 204/222/204 207/225/207 161/179/161
f 207/225/207 204/222/204 205/223/205
f 205/223/205 208/226/208 207/225/207
f 208/226/208 205/223/205 206/224/206
f 206/224/206 209/227/209 208/226/208
f 209/227/209 206/224/206 190/208/190
f 190/208/190 194/212/194 209/227/209
f 162/229/162 161/228/161 210/233/210
f 210/233/210 211/234/211 162/229/162
f 163/230/163 162/229/162 211/234/211
f 211/234/211 212/235/212 163/230/163
f 164/231/164 163/230/163 212/235/212
f 212/235/212 213/236/213 164/231/164
f 165/232/165 164/231/164 213/236/213
f 213/236/213 214/237/214 165/232/165
f 211/234/211 210/233/210 215/238/215
f 215/238/215 216/239/216 211/234/211
f 212/235/212 211/234/211 216/239/216
f 216/239/216 217/240/217 212/235/212
f 213/236/213 212/235/212 217/240/217
f 217/240/217 218/241/218 213/236/213
f 214/237/214 213/236/213 218/241/218
f 218/241/218 219/242/219 214/237/214
f 216/239/216 215/238/215 220/243/220
f 220/243/220 221/244/221 216/239/216
f 217/240/217 216/239/216 221/244/221
f 221/244/221 222/245/222 217/240/217
f 218/241/218 217/240/217 222/245/222
f 222/245/222 223/246/223 218/241/218
f 219/242/219 218/241/218 223/246/223
f 223/246/223 224/247/224 219/242/219
f 221/244/221 220/243/220 225/248/225
f 225/248/225 226/249/226 221/244/221
f 222/245/222 221/244/221 226/249/226
f 226/249/226 227/250/227 222/245/222
f 223/246/223 222/245/222 227/250/227
f 227/250/227 228/251/228 223/246/223
f 224/247/224 223/246/223 228/251/228
f 228/251/228 229/252/229 224/247/224
f 178/253/178 165/232/165 214/237/214
f 214/237/214 230/257/230 178/253/178
f 179/254/179 178/253/178 230/257/230
f 230/257/230 231/258/231 179/254/179
f 180/255/180 179/254/179 231/258/231
f 231/258/231 232/259/232 180/255/180
f 181/256/181 180/255/180 232/259/232
f 232/259/232 233/260/233 181/256/181
f 230/257/230 214/237/214 219/242/219
f 219/242/219 234/261/234 230/257/230
f 231/258/231 230/257/230 234/261/234
f 234/261/234 235/262/235 231/258/231
f 232/259/232 231/258/231 235/262/235
f 235/262/235 236/263/236 232/259/232
f 233/260/233 232/259/232 236/263/236
f 236/263/236 237/264/237 233/260/233
f 234/261/234 219/242/219 224/247/224
f 224/247/224 238/265/238 234/261/234
f 235/262/235 234/261/234 238/265/238
f 238/265/238 239/266/239 235/262/235
f 236/263/236 235/262/235 239/266/239
f 239/266/239 240/267/240 236/263/236
f 237/264/237 236/263/236 240/267/240
f 240/267/240 241/268/241 237/264/237
f 238/265/238 224/247/224 229/252/229
f 229/252/229 242/269/242 238/265/238
f 239/266/239 238/265/238 242/269/242
f 242/269/242 243/270/243 239/266/239
f 240/267/240 239/266/239 243/270/243
f 243/270/243 244/271/244 240/267/240
f 241/268/241 240/267/240 244/271/244
f 244/271/244 245/272/245 241/268/241
f 246/277/246 194/273/194 195/274/195
f 195/274/195 247/278/247 246/277/246
f 247/278/247 195/274/195 196/275/196
f 196/275/196 248/279/248 247/278/247
f 248/279/248 196/275/196 197/276/197
f 197/276/197 249/280/249 248/279/248
f 249/280/249 197/276/197 181/256/181
f 181/256/181 233/260/233 249/280/249
f 250/281/250 246/277/246 247/278/247
f 247/278/247 251/282/251 250/281/250
f 251/282/251 247/278/247 248/279/248
f 248/279/248 252/283/252 251/282/251
f 252/283/252 248/279/248 249/280/249
f 249/280/249 253/284/253 252/283/252
f 253/284/253 249/280/249 233/260/233
f 233/260/233 237/264/237 253/284/253
f 254/285/254 250/281/250 251/282/251
f 251/282/251 255/286/255 254/285/254
f 255/286/255 251/282/251 252/283/252
f 252/283/252 256/287/256 255/286/255
f 256/287/256 252/283/252 253/284/253
f 253/284/253 257/288/257 256/287/256
f 257/288/257 253/284/253 237/264/237
f 237/264/237 241/268/241 257/288/257
f 258/289/258 254/285/254 255/286/255
f 255/286/255 259/290/259 258/289/258
f 259/290/259 255/286/255 256/287/256
f 256/287/256 260/291/260 259/290/259
f 260/291/260 256/287/256 257/288/257
f 257/288/257 261/292/261 260/291/260
f 261/292/261 257/288/257 241/268/241
f 241/268/241 245/272/245 261/292/261
f 210/233/210 161/228/161 207/293/207
f 207/293/207 262/296/262 210/233/210
f 262/296/262 207/293/207 208/294/208
f 208/294/208 263/297/263 262/296/262
f 263/297/263 208/294/208 209/295/209
f 209/295/209 264/298/264 263/297/263
f 264/298/264 209/295/209 194/273/194
f 194/273/194 246/277/246 264/298/264
f 215/238/215 210/233/210 262/296/262
f 262/296/262 265/299/265 215/238/215
f 265/299/265 262/296/262 263/297/263
f 263/297/263 266/300/266 265/299/265
f 266/300/266 263/297/263 264/298/264
f 264/298/264 267/301/267 266/300/266
f 267/301/267 264/298/264 246/277/246
f 246/277/246 250/281/250 267/301/267
f 220/243/220 215/238/215 265/299/265
f 265/299/265 268/302/268 220/243/220
f 268/302/268 265/299/265 266/300/266
f 266/300/266 269/303/269 268/302/268
f 269/303/269 266/300/266 267/301/267
f 267/301/267 270/304/270 269/303/269
f 270/304/270 267/301/267 250/281/250
f 250/281/250 254/285/254 270/304/270
f 225/248/225 220/243/220 268/302/268
f 268/302/268 271/305/271 225/248/225
f 271/305/271 268/302/268 269/303/269
f 269/303/269 272/306/272 271/305/271
f 272/306/272 269/303/269 270/304/270
f 270/304/270 273/307/273 272/306/272
f 273/307/273 270/304/270 254/285/254
f 254/285/254 258/289/258 273/307/273
f 275/309/275 274/308/274 279/313/279
f 279/313/279 280/314/280 275/309/275
f 276/310/276 275/309/275 280/314/280
f 280/314/280 281/315/281 276/310/276
f 277/311/277 276/310/276 281/315/281
f 281/315/281 282/316/282 277/311/277
f 278/312/278 277/311/277 282/316/282
f 282/316/282 283/317/283 278/312/278
f 280/314/280 279/313/279 284/318/284
f 284/318/284 285/319/285 280/314/280
f 281/315/281 280/314/280 285/319/285
f 285/319/285 286/320/286 281/315/281
f 282/316/282 281/315/281 286/320/286
f 286/320/286 287/321/287 282/316/282
f 283/317/283 282/316/282 287/321/287
f 287/321/287 288/322/288 283/317/283
f 285/319/285 284/318/284 289/323/289
f 289/323/289 290/324/290 285/319/285
f 286/320/286 285/319/285 290/324/290
f 290/324/290 291/325/291 286/320/286
f 287/321/287 286/320/286 291/325/291
f 291/325/291 292/326/292 287/321/287
f 288/322/288 287/321/287 292/326/292
f 292/326/292 293/327/293 288/322/288
f 290/324/290 289/323/289 294/328/294
f 294/328/294 295/329/295 290/324/290
f 291/325/291 290/324/290 295/329/295
f 295/329/295 296/330/296 291/325/291
f 292/326/292 291/325/291 296/330/296
f 296/330/296 297/331/297 292/326/292
f 293/327/293 292/326/292 297/331/297
f 297/331/297 298/332/298 293/327/293
f 299/333/299 278/312/278 283/317/283
f 283/317/283 303/337/303 299/333/299
f 300/334/300 299/333/299 303/337/303
f 303/337/303 304/338/304 300/334/300
f 301/335/301 300/334/300 304/338/304
f 304/338/304 305/339/305 301/335/301
f 302/336/302 301/335/301 305/339/305
f 305/339/305 306/340/306 302/336/302
f 303/337/303 283/317/283 288/322/288
f 288/322/288 307/341/307 303/337/303
f 304/338/304 303/337/303 307/341/307
f 307/341/307 308/342/308 304/338/304
f 305/339/305 304/338/304 308/342/308
f 308/342/308 309/343/309 305/339/305
f 306/340/306 305/339/305 309/343/309
f 309/343/309 310/344/310 306/340/306
f 307/341/307 288/322/288 293/327/293
f 293/327/293 311/345/311 307/341/307
f 308/342/308 307/341/307 311/345/311
f 311/345/311 312/346/312 308/342/308
f 309/343/309 308/342/308 312/346/312
f 312/346/312 313/347/313 309/343/309
f 310/344/310 309/343/309 313/347/313
f 313/347/313 314/348/314 310/344/310
f 311/345/311 293/327/293 298/332/298
f 298/332/298 315/349/315 311/345/311
f 312/346/312 311/345/311 315/349/315
f 315/349/315 316/350/316 312/346/312
f 313/347/313 312/346/312 316/350/316
f 316/350/316 317/351/317 313/347/313
f 314/348/314 313/347/313 317/351/317
f 317/351/317 318/352/318 314/348/314
f 323/357/323 319/353/319 320/354/320
f 320/354/320 324/358/324 323/357/323
f 324/358/324 320/354/320 321/355/321
f 321/355/321 325/359/325 324/358/324
f 325/359/325 321/355/321 322/356/322
f 322/356/322 326/360/326 325/359/325
f 326/360/326 322/356/322 302/336/302
f 302/336/302 306/340/306 326/360/326
f 327/361/327 323/357/323 324/358/324
f 324/358/324 328/362/328 327/361/327
f 328/362/328 324/358/324 325/359/325
f 325/359/325 329/363/329 328/362/328
f 329/363/329 325/359/325 326/360/326
f 326/360/326 330/364/330 329/363/329
f 330/364/330 326/360/326 306/340/306
f 306/340/306 310/344/310 330/364/330
f 331/365/331 327/361/327 328/362/328
f 328/362/328 332/366/332 331/365/331
f 332/366/332 328/362/328 329/363/329
f 329/363/329 333/367/333 332/366/332
f 333/367/333 329/363/329 330/364/330
f 330/364/330 334/368/334 333/367/333
f 334/368/334 330/364/330 310/344/310
f 310/344/310 314/348/314 334/368/334
f 335/369/335 331/365/331 332/366/332
f 332/366/332 336/370/336 335/369/335
f 336/370/336 332/366/332 333/367/333
f 333/367/333 337/371/337 336/370/336
f 337/371/337 333/367/333 334/368/334
f 334/368/334 338/372/338 337/371/337
f 338/372/338 334/368/334 314/348/314
f 314/348/314 318/352/318 338/372/338
f 279/377/279 274/373/274 339/374/339
f 339/374/339 342/378/342 279/377/279
f 342/378/342 339/374/339 340/375/340
f 340/375/340 343/379/343 342/378/342
f 343/379/343 340/375/340 341/376/341
f 341/376/341 344/380/344 343/379/343
f 344/380/344 341/376/341 319/353/319
f 319/353/319 323/357/323 344/380/344
f 284/381/284 279/377/279 342/378/342
f 342/378/342 345/382/345 284/381/284
f 345/382/345 342/378/342 343/379/343
f 343/379/343 346/383/346 345/382/345
f 346/383/346 343/379/343 344/380/344
f 344/380/344 347/384/347 346/383/346
f 347/384/347 344/380/344 323/357/323
f 323/357/323 327/361/327 347/384/347
f 289/385/289 284/381/284 345/382/345
f 345/382/345 348/386/348 289/385/289
f 348/386/348 345/382/345 346/383/346
f 346/383/346 349/387/349 348/386/348
f 349/387/349 346/383/346 347/384/347
f 347/384/347 350/388/350 349/387/349
f 350/388/350 347/384/347 327/361/327
f 327/361/327 331/365/331 350/388/350
f 294/389/294 289/385/289 348/386/348
f 348/386/348 351/390/351 294/389/294
f 351/390/351 348/386/348 349/387/349
f 349/387/349 352/391/352 351/390/351
f 352/391/352 349/387/349 350/388/350
f 350/388/350 353/392/353 352/391/352
f 353/392/353 350/388/350 331/365/331
f 331/365/331 335/369/335 353/392/353
f 295/329/295 294/328/294 354/393/354
f 354/393/354 355/394/355 295/329/295
f 296/330/296 295/329/295 355/394/355
f 355/394/355 356/395/356 296/330/296
f 297/331/297 296/330/296 356/395/356
f 356/395/356 357/396/357 297/331/297
f 298/332/298 297/331/297 357/396/357
f 357/396/357 358/397/358 298/332/298
f 355/394/355 354/393/354 359/398/359
f 359/398/359 360/399/360 355/394/355
f 356/395/356 355/394/355 360/399/360
f 360/399/360 361/400/361 356/395/356
f 357/396/357 356/395/356 361/400/361
f 361/400/361 362/401/362 357/396/357
f 358/397/358 357/396/357 362/401/362
f 362/401/362 363/402/363 358/397/358
f 360/399/360 359/398/359 364/403/364
f 364/403/364 365/404/365 360/399/360
f 361/400/361 360/399/360 365/404/365
f 365/404/365 366/405/366 361/400/361
f 362/401/362 361/400/361 366/405/366
f 366/405/366 367/406/367 362/401/362
f 363/402/363 362/401/362 367/406/367
f 367/406/367 368/407/368 363/402/363
f 365/404/365 364/403/364 369/408/369
f 369/408/369 370/409/370 365/404/365
f 366/405/366 365/404/365 370/409/370
f 370/409/370 371/410/371 366/405/366
f 367/406/367 366/405/366 371/410/371
f 371/410/371 372/411/372 367/406/367
f 368/407/368 367/406/367 372/411/372
f 372/411/372 373/412/373 368/407/368
f 315/349/315 298/332/298 358/397/358
f 358/397/358 374/413/374 315/349/315
f 316/350/316 315/349/315 374/413/374
f 374/413/374 375/414/375 316/350/316
f 317/351/317 316/350/316 375/414/375
f 375/414/375 376/415/376 317/351/317
f 318/352/318 317/351/317 376/415/376
f 376/415/376 377/416/377 318/352/318
f 374/413/374 358/397/358 363/402/363
f 363/402/363 378/417/378 374/413/374
f 375/414/375 374/413/374 378/417/378
f 378/417/378 379/418/379 375/414/375
f 376/415/376 375/414/375 379/418/379
f 379/418/379 380/419/380 376/415/376
f 377/416/377 376/415/376 380/419/380
f 380/419/380 381/420/381 377/416/377
f 378/417/378 363/402/363 368/407/368
f 368/407/368 382/421/382 378/417/378
f 379/418/379 378/417/378 382/421/382
f 382/421/382 383/422/383 379/418/379
f 380/419/380 379/418/379 383/422/383
f 383/422/383 384/423/384 380/419/380
f 381/420/381 380/419/380 384/423/384
f 384/423/384 385/424/385 381/420/381
f 382/421/382 368/407/368 373/412/373
f 373/412/373 386/425/386 382/421/382
f 383/422/383 382/421/382 386/425/386
f 386/425/386 387/426/387 383/422/383
f 384/423/384 383/422/383 387/426/387
f 387/426/387 388/427/388 384/423/384
f 385/424/385 384/423/384 388/427/388
f 388/427/388 389/428/389 385/424/385
f 390/429/390 335/369/335 336/370/336
f 336/370/336 391/430/391 390/429/390
f 391/430/391 336/370/336 337/371/337
f 337/371/337 392/431/392 391/430/391
f 392/431/392 337/371/337 338/372/338
f 338/372/338 393/432/393 392/431/392
f 393/432/393 338/372/338 318/352/318
f 318/352/318 377/416/377 393/432/393
f 394/433/394 390/429/390 391/430/391
f 391/430/391 395/434/395 394/433/394
f 395/434/395 391/430/391 392/431/392
f 392/431/392 396/435/396 395/434/395
f 396/435/396 392/431/392 393/432/393
f 393/432/393 397/436/397 396/435/396
f 397/436/397 393/432/393 377/416/377
f 377/416/377 381/420/381 397/436/397
f 398/437/398 394/433/394 395/434/395
f 395/434/395 399/438/399 398/437/398
f 399/438/399 395/434/395 396/435/396
f 396/435/396 400/439/400 399/438/399
f 400/439/400 396/435/396 397/436/397
f 397/436/397 401/440/401 400/439/400
f 401/440/401 397/436/397 381/420/381
f 381/420/381 385/424/385 401/440/401
f 402/441/402 398/437/398 399/438/399
f 399/438/399 403/442/403 402/441/402
f 403/442/403 399/438/399 400/439/400
f 400/439/400 404/443/404 403/442/403
f 404/443/404 400/439/400 401/440/401
f 401/440/401 405/444/405 404/443/404
f 405/444/405 401/440/401 385/424/385
f 385/424/385 389/428/389 405/444/405
f 354/445/354 294/389/294 351/390/351
f 351/390/351 406/446/406 354/445/354
f 406/446/406 351/390/351 352/391/352
f 352/391/352 407/447/407 406/446/406
f 407/447/407 352/391/352 353/392/353
f 353/392/353 408/448/408 407/447/407
f 408/448/408 353/392/353 335/369/335
f 335/369/335 390/429/390 408/448/408
f 359/449/359 354/445/354 406/446/406
f 406/446/406 409/450/409 359/449/359
f 409/450/409 406/446/406 407/447/407
f 407/447/407 410/451/410 409/450/409
f 410/451/410 407/447/407 408/448/408
f 408/448/408 411/452/411 410/451/410
f 411/452/411 408/448/408 390/429/390
f 390/429/390 394/433/394 411/452/411
f 364/453/364 359/449/359 409/450/409
f 409/450/409 412/454/412 364/453/364
f 412/454/412 409/450/409 410/451/410
f 410/451/410 413/455/413 412/454/412
f 413/455/413 410/451/410 411/452/411
f 411/452/411 414/456/414 413/455/413
f 414/456/414 411/452/411 394/433/394
f 394/433/394 398/437/398 414/456/414
f 369/457/369 364/453/364 412/454/412
f 412/454/412 415/458/415 369/457/369
f 415/458/415 412/454/412 413/455/413
f 413/455/413 416/459/416 415/458/415
f 416/459/416 413/455/413 414/456/414
f 414/456/414 417/460/417 416/459/416
f 417/460/417 414/456/414 398/437/398
f 398/437/398 402/441/402 417/460/417
f 370/409/370 369/408/369 418/461/418
f 418/461/418 419/462/419 370/409/370
f 371/410/371 370/409/370 419/462/419
f 419/462/419 420/463/420 371/410/371
f 372/411/372 371/410/371 420/463/420
f 420/463/420 421/464/421 372/411/372
f 373/412/373 372/411/372 421/464/421
f 421/464/421 422/465/422 373/412/373
f 419/462/419 418/461/418 423/466/423
f 423/466/423 424/467/424 419/462/419
f 420/463/420 419/462/419 424/467/424
f 424/467/424 425/468/425 420/463/420
f 421/464/421 420/463/420 425/468/425
f 425/468/425 426/469/426 421/464/421
f 422/465/422 421/464/421 426/469/426
f 426/469/426 427/470/427 422/465/422
f 424/467/424 423/466/423 428/471/428
f 428/471/428 429/472/429 424/467/424
f 425/468/425 424/467/424 429/472/429
f 429/472/429 430/473/430 425/468/425
f 426/469/426 425/468/425 430/473/430
f 430/473/430 431/474/431 426/469/426
f 427/470/427 426/469/426 431/474/431
f 431/474/431 432/475/432 427/470/427
f 429/472/429 428/471/428 433/476/433
f 433/476/433 434/477/434 429/472/429
f 430/473/430 429/472/429 434/477/434
f 434/477/434 435/478/435 430/473/430
f 431/474/431 430/473/430 435/478/435
f 435/478/435 436/479/436 431/474/431
f 432/475/432 431/474/431 436/479/436
f 436/479/436 437/480/437 432/475/432
f 386/425/386 373/412/373 422/465/422
f 422/465/422 438/481/438 386/425/386
f 387/426/387 386/425/386 438/481/438
f 438/481/438 439/482/439 387/426/387
f 388/427/388 387/426/387 439/482/439
f 439/482/439 440/483/440 388/427/388
f 389/428/389 388/427/388 440/483/440
f 440/483/440 441/484/441 389/428/389
f 438/481/438 422/465/422 427/470/427
f 427/470/427 442/485/442 438/481/438
f 439/482/439 438/481/438 442/485/442
f 442/485/442 443/486/443 439/482/439
f 440/483/440 439/482/439 443/486/443
f 443/486/443 444/487/444 440/483/440
f 441/484/441 440/483/440 444/487/444
f 444/487/444 445/488/445 441/484/441
f 442/485/442 427/470/427 432/475/432
f 432/475/432 446/489/446 442/485/442
f 443/486/443 442/485/442 446/489/446
f 446/489/446 447/490/447 443/486/443
f 444/487/444 443/486/443 447/490/447
f 447/490/447 448/491/448 444/487/444
f 445/488/445 444/487/444 448/491/448
f 448/491/448 449/492/449 445/488/445
f 446/489/446 432/475/432 437/480/437
f 437/480/437 450/493/450 446/489/446
f 447/490/447 446/489/446 450/493/450
f 450/493/450 451/494/451 447/490/447
f 448/491/448 447/490/447 451/494/451
f 451/494/451 452/495/452 448/491/448
f 449/492/449 448/491/448 452/495/452
f 452/495/452 453/496/453 449/492/449
f 454/497/454 402/441/402 403/442/403
f 403/442/403 455/498/455 454/497/454
f 455/498/455 403/442/403 404/443/404
f 404/443/404 456/499/456 455/498/455
f 456/499/456 404/443/404 405/444/405
f 405/444/405 457/500/457 456/499/456
f 457/500/457 405/444/405 389/428/389
f 389/428/389 441/484/441 457/500/457
f 458/501/458 454/497/454 455/498/455
f 455/498/455 459/502/459 458/501/458
f 459/502/459 455/498/455 456/499/456
f 456/499/456 460/503/460 459/502/459
f 460/503/460 456/499/456 457/500/457
f 457/500/457 461/504/461 460/503/460
f 461/504/461 457/500/457 441/484/441
f 441/484/441 445/488/445 461/504/461
f 462/505/462 458/501/458 459/502/459
f 459/502/459 463/506/463 462/505/462
f 463/506/463 459/502/459 460/503/460
f 460/503/460 464/507/464 463/506/463
f 464/507/464 460/503/460 461/504/461
f 461/504/461 465/508/465 464/507/464
f 465/508/465 461/504/461 445/488/445
f 445/488/445 449/492/449 465/508/465
f 466/509/466 462/505/462 463/506/463
f 463/506/463 467/510/467 466/509/466
f 467/510/467 463/506/463 464/507/464
f 464/507/464 468/511/468 467/510/467
f 468/511/468 464/507/464 465/508/465
f 465/508/465 469/512/469 468/511/468
f 469/512/469 465/508/465 449/492/449
f 449/492/449 453/496/453 469/512/469
f 418/513/418 369/457/369 415/458/415
f 415/458/415 470/514/470 418/513/418
f 470/514/470 415/458/415 416/459/416
f 416/459/416 471/515/471 470/514/470
f 471/515/471 416/459/416 417/460/417
f 417/460/417 472/516/472 471/515/471
f 472/516/472 417/460/417 402/441/402
f 402/441/402 454/497/454 472/516/472
f 423/517/423 418/513/418 470/514/470
f 470/514/470 473/518/473 423/517/423
f 473/518/473 470/514/470 471/515/471
f 471/515/471 474/519/474 473/518/473
f 474/519/474 471/515/471 472/516/472
f 472/516/472 475/520/475 474/519/474
f 475/520/475 472/516/472 454/497/454
f 454/497/454 458/501/458 475/520/475
f 428/521/428 423/517/423 473/518/473
f 473/518/473 476/522/476 428/521/428
f 476/522/476 473/518/473 474/519/474
f 474/519/474 477/523/477 476/522/476
f 477/523/477 474/519/474 475/520/475
f 475/520/475 478/524/478 477/523/477
f 478/524/478 475/520/475 458/501/458
f 458/501/458 462/505/462 478/524/478
f 433/525/433 428/521/428 476/522/476
f 476/522/476 479/526/479 433/525/433
f 479/526/479 476/522/476 477/523/477
f 477/523/477 480/527/480 479/526/479
f 480/527/480 477/523/477 478/524/478
f 478/524/478 481/528/481 480/527/480
f 481/528/481 478/524/478 462/505/462
f 462/505/462 466/509/466 481/528/481
